<svg version="1.2" xmlns="http://www.w3.org/2000/svg" viewBox="0 0 256 256" width="256" height="256"><style>.a{paint-order:stroke fill markers;stroke:#fff;stroke-width: 20;stroke-linejoin: round;;fill:#2d3e50}</style><path class="a" d="m76 83.1l2.8-5.6h2.2l-0.2 2.2-2.6 4.5-1-1.1zm-41.4-2.2l2.5-2.3h2.2l3.2 2.3 0.1-1.2q6 1.2 8.5 5.6 3.9 0 8 23.6l15.5-23.6 1.2-1.1h1.2l-0.1 1.1-15.9 28.1h2.2q17.7-34.8 21-34.8l3.2 2.3 0.1-1.2q4.8 0 11.4 11.3l-0.4 3.3-1.1 1.1 0.9 1.2-0.3 4.5h-2.3l1.7 6.7-2.2 12.3-0.4 3.4 1.1 1.1-0.1 1.1-2.4 2.3 2 2.2-2.4 2.3 2 2.2-1.2 1.1h-1.1l1 1.2-2.7 31.4q-3.4 0-3.7 3.4-3.3 0-3.9 5.6h-3.3l-6.4-4.5 1.7-6.8-1.6-6.7 7.6-48.2q-5.6 5.8-12.3 24.6-0.6 6.6-5.3 9h-1.1l0.1-1.1 1.2-1.1 0.2-1.1-1.1-1.2 2.4-2.2 0.3-3.4h-2.2q-0.5 6.2-5.3 9h-1.1l-5.1-5.6q-3 0-3.6-10.1-5.7-11.7-5.3-16.8h-1.1l-2.3 13.4-0.8 9-1.4 3.4 0.6 5.6-2.1 24.7q-2.2 0-2.6 3.3l-6 5.6h-1.2l-7.6-3.3 1.7-5.6-0.1-12.4 0.5-5.6 1.2-1.1-1-1.1 0.1-1.2q1.5-17.1 6.6-37h1.1l-1-1.1 0.1-1.1 1.5-4.5-0.8-4.5 0.2-1.1h1.1l-0.2 2.2h1.1l0.3-3.4-1-1.1 4.1-7.8 0.2-3.4-1.2 1.1h-1.1l-1-1.1 0.2-3.4h1.2l1 1.2zm30.6 48.2l0.8 3.4h1.2q0.4-6 13.8-30.3l1.6-5.6q-8.4 10.4-17.4 32.5zm21.1-23.6h-1.1l-1.2 1.2-2.5 28h1.1l3.2-23.5-1-1.2h1.1l-1-1.1 0.1-1.1 1.2-1.1zm-7.3 58.3h-1.1l-0.8 9h1.1l1.7-5.6zm26.6-82.3v-1.2l6.8 1.2 22.6-1.2 28.1 8.3v2.4l1.1 1.2-1.1 1.2h-1.1v1.1h2.2l2.2-2.3h1.2v4.7l-43.9 53.2h6.7l6.8-1.2q13.9 3.6 18 10.7h1.1v4.6l-2.3 2.5h-1.1l-5.6-2.5 1.1 1.3v2.2l-9-2.2h-3.3q-10.9 0-29.3 7.1l-6.8-5.9 3.4-9.5-2.2-2.4v-4.7q8.3-14.2 10.1-14.2l1.1 1.2 1.2-1.2v-1.2h-1.2q0-3.5 4.5-3.5l4.5-6-1.1-1.1 3.4-2.4 1.1 1.2q10-15.8 13.5-16.5v1.1l-12.4 16.6h1.1l19.2-23.7h-1.1l-4.5 3.6-1.2-1.2v-1.2l1.2-1.2-11.3 1.2h-13.5q-5.3-2.6-7.9-8.2v-1.2l2.2-3.6q-1.8-5.9-5.6-5.9zm30.5 43.7h-1.2l-6.8 8.3h1.2zm-13.6 3.5h-1.1l-5.6 7.2h1.1zm5.6 5.9h-1.1l-5.6 7.1h1.1zm48.7-53.1l1.1-3.4h1.2v3.4h1.1v-2.2h4.5q2.2 0 2.2 6.7l3.4 1.1q0-3.4 2.2-3.4l1.2 1.2v1.1l-5.7 30.3 16.9-1.1h11.2l1.1-5.6-1.1-1.2h2.2l-1.1-7.8v-1.1h2.3l-1.2-1.2v-2.2h2.3v-2.3h-2.3v-1.1h2.3l-1.1-1.1v-7.9l1.1 1.2h1.1v-4.5l-1.1-1.1v-1.2h3.4l-5.7 38.2q2.3 0 6.8-37l4.5-1.2q1.1 9 3.3 9h1.2q0-3.4 2.2-3.4h1.1q-5.6 38.9-16.8 90.9h-1.1l-1.2-1.1 1.2-1.1v-9h-1.2l-3.3 11.2h-3.4q-2.2 0-2.2-6.7h-1.2v4.5h-1.1q-2.2 0-2.2-3.4 0-8.1 6.7-38.1h-1.1l-14.6 1.1-10.1-1.1q-3.4 26.9-6.7 35.9h-3.4q-2.2 0-2.2-9h-1.2l-1.1 7.9-2.2-2.3v-3.3l1.1-1.2v-1.1l-1.1-1.1h-1.2l-1.1 1.1h-1.1l-1.1-4.5q4.5-37.9 10.1-55h1.1l-1.1-1.1v-3.4l3.3-12.3zm3.4 1.1h-1.1v7.9h1.1zm-1.1 9h-1.1l-1.2 8.9v2.3h1.2l1.1-9zm-2.3 12.3h-1.1v4.5h1.1zm-1.1 5.6h-1.1l-1.1 5.7v1.1h1.1l1.1-4.5zm-2.2 11.2h-1.1v4.5h1.1zm42.6 11.2h-1.1l-1.1 6.8v1.1h1.1l1.1-5.6zm-2.2 8.9h-1.1v4.5h1.1zm7.8 12.4h-1.1l-1.1 5.6v3.4h1.1l1.1-7.9zm-56.1 11.2v-5.6h1.1v5.6z"/></svg>